<svg width="30" height="33" viewBox="0 0 30 33" fill="none" xmlns="http://www.w3.org/2000/svg">
<ellipse cx="15" cy="16.183" rx="15" ry="16.183" fill="#3683F0"/>
<path d="M22.6777 18.9502L19.25 15.5225C18.5469 14.8486 17.5508 14.7021 16.7305 15.1123L13.625 12.0068V10.1611L9.875 7.34863L8 9.22363L10.8125 12.9736H12.6289L15.7344 16.1084C15.3535 16.9287 15.4707 17.9248 16.1445 18.5986L19.5723 22.0557C20.0117 22.4658 20.6855 22.4658 21.125 22.0557L22.6777 20.5029C23.0879 20.0635 23.0879 19.3896 22.6777 18.9502ZM17.6973 13.9404C18.5469 13.9404 19.3086 14.2627 19.8945 14.8486L20.4805 15.4346C20.9199 15.2295 21.3594 14.9365 21.7402 14.5557C22.8242 13.4717 23.2051 11.9482 22.8535 10.5713C22.7949 10.3076 22.4727 10.2197 22.2676 10.3955L20.0996 12.5928L18.1074 12.2412L17.7852 10.249L19.9531 8.08105C20.1582 7.87598 20.041 7.55371 19.7773 7.49512C18.4004 7.14355 16.877 7.52441 15.793 8.6084C14.9434 9.42871 14.5625 10.542 14.5625 11.626L16.9941 14.0283C17.2285 13.9697 17.4629 13.9404 17.6973 13.9404ZM14.6504 16.3428L13.0098 14.7021L8.52734 19.1553C7.79492 19.8877 7.79492 21.0889 8.52734 21.8213C9.25977 22.5537 10.4609 22.5537 11.1934 21.8213L14.7969 18.1885C14.5918 17.6025 14.5039 16.9873 14.6504 16.3428ZM9.875 21.1768C9.46484 21.1768 9.17188 20.8838 9.17188 20.4736C9.17188 20.0928 9.46484 19.7705 9.875 19.7705C10.2559 19.7705 10.5781 20.0928 10.5781 20.4736C10.5781 20.8838 10.2559 21.1768 9.875 21.1768Z" fill="white"/>
</svg>
